<svg width="257" height="242" viewBox="0 0 257 242" fill="none" xmlns="http://www.w3.org/2000/svg">
<path d="M48.1196 61.0884C47.8657 62.63 47.9529 64.2085 48.3751 65.7128C48.7972 67.217 49.5441 68.6104 50.563 69.7948C51.5819 70.9792 52.8481 71.9258 54.2724 72.5679C55.6968 73.21 57.2445 73.532 58.8068 73.5112L84.9858 149.685L101.69 138.205L69.4437 61.9126C69.2348 59.2905 68.0713 56.836 66.1737 55.0144C64.2761 53.1928 61.7762 52.1306 59.1477 52.029C56.5193 51.9274 53.9448 52.7936 51.9123 54.4633C49.8797 56.133 48.5303 58.4902 48.1196 61.0884Z" fill="#ECE3CC"/>
<path d="M184.758 86.8617C173.132 100.088 144.466 123.398 120.851 139.448C115.747 142.918 110.875 146.042 106.465 148.658C103.486 150.424 100.715 151.952 98.2212 153.199C96.5473 154.033 94.7193 154.512 92.8516 154.607C90.984 154.701 89.1169 154.409 87.3673 153.749C85.6178 153.088 84.0234 152.074 82.6842 150.769C81.345 149.463 80.2897 147.896 79.5844 146.164L63.2329 106.605L68.8904 102.854L82.8401 93.6012L86.0085 91.5051L99.0897 122.66L112.884 111.588L121.448 104.712L160.488 73.3826L163.855 72.3831L171.711 80.0493L177.266 85.4739L182.492 86.3813C183.273 86.5171 184.03 86.6773 184.758 86.8617Z" fill="#3E82DE"/>
<path d="M204.278 129.269L202.813 229.906L84.4414 226.509L103.345 184.781C103.209 183.442 111.642 174.044 111.594 172.651C111.448 168.57 114.495 164.791 114.99 160.521C115.999 151.714 110.22 118.458 112.884 111.588C114.019 108.52 115.473 105.579 117.222 102.815C118.736 100.525 120.289 98.9821 121.773 98.4241L126.15 88.2251L130.031 82.4026L160.488 73.3826L163.855 72.3831L171.711 80.0493L177.266 85.474L182.492 86.3813C183.273 86.5171 184.03 86.6773 184.758 86.8617C188.263 87.67 191.53 89.2885 194.297 91.5876C203.419 99.3363 204.482 113.912 204.278 129.269Z" fill="#3E82DE"/>
<path d="M256.257 229.15C252.919 233.337 249.382 237.351 245.646 241.193L232.846 241.202L164.01 241.28L151.618 241.294L143.379 241.304L131.122 241.314L121.695 241.323L104.281 241.343L94.0089 241.357L72.3784 241.377L62.0531 241.391L33.4405 241.421L15.4684 241.44L10.6454 241.445C9.57314 240.348 8.517 239.235 7.47704 238.107C4.88604 235.297 2.39369 232.401 0 229.417L9.98557 229.407L16.7882 229.402L32.538 229.383L62.9314 229.353L73.2032 229.344L77.3566 229.339H77.3711L80.6317 229.334L82.0922 229.329L85.8331 229.324H87.4149L98.5067 229.315L122.432 229.286L132.961 229.276L143.044 229.266L152.496 229.256L166.057 229.242L238.489 229.169L256.257 229.15Z" fill="#ACA9A9"/>
<path d="M108.488 78.0416L108.462 78.0441C107.062 78.1743 105.668 77.7432 104.586 76.8455C103.504 75.9479 102.823 74.6572 102.693 73.2574L99.9338 43.8056C99.4343 38.5295 100.001 33.2068 101.6 28.154C104.733 18.2924 111.552 10.0205 120.634 5.06226C125.324 2.50884 130.482 0.93138 135.797 0.42495C157.544 -1.64688 165.491 2.88232 178.925 36.0495C192.358 69.2167 181.688 65.5462 181.688 65.5462C181.756 66.256 181.679 66.9721 181.464 67.6517C181.041 68.9778 180.122 70.0891 178.899 70.7537C178.272 71.094 177.582 71.3046 176.872 71.3732C151.162 77.9081 125.221 84.787 108.484 78.042L108.488 78.0416Z" fill="#2F2E41"/>
<path d="M156.34 28.3315C159.567 33.1065 161.307 38.7307 161.34 44.4939C161.373 50.2572 159.697 55.9008 156.524 60.7121C153.351 65.5234 148.824 69.2865 143.513 71.5262C138.203 73.7659 132.348 74.3817 126.688 73.2958C122.941 72.5892 119.372 71.1461 116.187 69.0501C113.002 66.9542 110.264 64.247 108.133 61.0855C104.912 56.3121 103.177 50.692 103.146 44.9339C103.116 39.1758 104.79 33.5375 107.959 28.7298C111.128 23.9221 115.65 20.1603 120.954 17.9188C126.258 15.6773 132.107 15.0563 137.763 16.1343C141.513 16.8367 145.086 18.2767 148.275 20.3707C151.464 22.4646 154.205 25.1709 156.34 28.3326L156.34 28.3315Z" fill="#ECE3CC"/>
<path d="M90.8172 47.0776C90.4225 42.9047 90.8706 38.6952 92.135 34.699C92.4282 24.9234 95.2644 16.0691 107.187 16.4408C110.873 14.4358 114.924 13.1927 119.1 12.7853L124.992 12.2035C125.058 12.1969 125.124 12.1905 125.191 12.1844C129.273 11.8045 133.39 12.2323 137.306 13.4434C141.223 14.6546 144.863 16.6253 148.018 19.2431C151.173 21.861 153.782 25.0746 155.695 28.7005C157.608 32.3265 158.788 36.2937 159.168 40.3758L159.223 40.9657L146.758 42.1843L141.393 30.7035L141.657 42.6854L135.219 43.3173L132.514 37.5249L132.646 43.5661C123.087 51.9852 108.591 52.4264 90.8781 47.668L90.8172 47.0776Z" fill="#2F2E41"/>
<path d="M130.691 75.0252C130.585 75.9956 130.753 76.9762 131.177 77.8557C131.39 78.3061 131.666 78.7244 131.995 79.0984C132.277 79.4169 132.596 79.7009 132.945 79.9446C133.977 80.6636 135.232 80.991 136.485 80.8682C136.563 80.8602 136.641 80.8507 136.718 80.8397C136.796 80.8287 136.874 80.816 136.951 80.8014C137.029 80.7874 137.107 80.7713 137.184 80.7531C137.261 80.7348 137.338 80.7151 137.416 80.6938L141.766 79.4747L146.642 65.8795L147.76 77.8091L167.543 72.3012L162.8 21.6771L129.081 24.9996L130.006 25.8901C133.078 28.8808 135.266 32.6612 136.329 36.8153C137.383 41.0248 137.709 45.3839 137.291 49.7034C136.901 54.0711 136.092 58.3912 134.876 62.6043C133.818 66.3349 132.545 70.0015 131.065 73.5857C130.874 74.0457 130.748 74.5302 130.691 75.0252Z" fill="#2F2E41"/>
<path d="M135.187 234.636C134.607 234.635 134.035 234.506 133.512 234.257L40.0995 236.64C39.3827 236.301 38.7858 235.752 38.3875 235.066C37.9892 234.38 37.8084 233.589 37.8688 232.798C37.9293 232.008 38.2282 231.254 38.7261 230.636C39.224 230.019 39.8975 229.567 40.6575 229.34L101.77 211.118C102.403 210.93 103.073 210.904 103.719 211.044L198.25 222.566C199.086 222.746 199.841 223.196 200.398 223.846C200.955 224.496 201.284 225.31 201.335 226.164C201.386 227.018 201.156 227.866 200.68 228.577C200.204 229.289 199.508 229.825 198.699 230.103L136.467 234.42C136.055 234.563 135.623 234.635 135.187 234.636Z" fill="#3F3D56"/>
<path d="M138.623 228.133C138.201 228.133 137.786 228.025 137.418 227.82L61.5541 231.364C61.1233 231.122 60.7752 230.756 60.5552 230.314C60.3352 229.872 60.2535 229.374 60.3207 228.884C60.3879 228.395 60.6009 227.937 60.9319 227.571C61.263 227.204 61.6968 226.946 62.1768 226.829L89.6412 220.163C90.0699 220.06 90.5185 220.073 90.9403 220.201L161.467 220.117C161.969 220.27 162.409 220.581 162.722 221.002C163.035 221.424 163.205 221.934 163.206 222.46C163.208 222.985 163.042 223.497 162.732 223.92C162.422 224.344 161.984 224.657 161.483 224.815L139.357 228.021C139.119 228.095 138.872 228.133 138.623 228.133Z" fill="#2F2E41"/>
<path d="M130.637 224.09C131.951 224.936 133.433 225.485 134.981 225.696C136.529 225.908 138.105 225.777 139.597 225.314C141.089 224.851 142.461 224.066 143.617 223.015C144.774 221.964 145.685 220.672 146.288 219.231L226.587 225.539L222.706 205.645L139.882 204.856C137.394 204.004 134.679 204.094 132.252 205.11C129.826 206.126 127.856 207.996 126.717 210.367C125.577 212.738 125.347 215.444 126.07 217.973C126.792 220.502 128.417 222.679 130.637 224.09Z" fill="#ECE3CC"/>
<path d="M178.067 94.5327C178.067 94.5327 190.197 84.8286 204.753 102.296C214.569 114.076 233.506 185.288 235.076 214.797C235.175 216.665 234.888 218.532 234.232 220.283C233.575 222.034 232.564 223.631 231.262 224.973C229.96 226.315 228.395 227.373 226.665 228.082C224.934 228.791 223.076 229.135 221.207 229.092L178.406 228.347L173.62 201.442L207.412 201.842L178.067 94.5327Z" fill="#3E82DE"/>
<path d="M129.992 234.647C128.523 234.646 127.07 234.351 125.717 233.781L39.1357 235.757C36.8506 234.804 34.9538 233.108 33.7519 230.944C32.5499 228.779 32.1131 226.273 32.5121 223.829L29.2949 147.792C29.7216 145.076 31.1511 142.618 33.3012 140.905C35.4513 139.192 38.1657 138.347 40.9084 138.537L121.289 141.871C122.832 141.972 124.337 142.396 125.705 143.117C127.074 143.837 128.275 144.836 129.232 146.05C130.19 147.265 130.881 148.667 131.261 150.166C131.642 151.664 131.703 153.226 131.441 154.75L140.859 225.478C140.416 228.041 139.083 230.365 137.096 232.042C135.108 233.719 132.592 234.642 129.992 234.647Z" fill="#3F3D56"/>
<path d="M62.162 21.7727L33.2614 21.691C32.4867 21.6901 31.7433 21.997 31.194 22.5444C30.6448 23.0919 30.3345 23.8352 30.3313 24.6114L30.2266 62.9573C30.2249 63.7328 30.5306 64.4771 31.0763 65.0269C31.6221 65.5767 32.3633 65.8869 33.1372 65.8894L49.169 65.936L62.0417 65.971C62.8162 65.9725 63.5596 65.6656 64.1083 65.118C64.657 64.5703 64.9662 63.8267 64.9679 63.0507L64.9757 60.7836L65.0766 24.7086C65.0781 23.9322 64.7721 23.1869 64.2256 22.6364C63.6791 22.0859 62.9369 21.7753 62.162 21.7727Z" fill="#E6E6E6"/>
<path d="M59.8917 24.2204L35.0864 24.151C34.362 24.1501 33.6669 24.435 33.1532 24.9434C32.6396 25.4517 32.3494 26.142 32.3462 26.863L32.2764 51.3207C32.2715 54.5326 33.5468 57.6154 35.8225 59.8927C38.0982 62.17 41.1885 63.456 44.4155 63.4686L49.1285 63.4801L59.7831 63.511C60.5077 63.5126 61.2032 63.2278 61.717 62.7193C62.2308 62.2109 62.5208 61.5202 62.5234 60.799L62.5311 58.3378L62.6164 26.9478C62.6179 26.2267 62.3319 25.5344 61.821 25.023C61.3101 24.5116 60.6162 24.223 59.8917 24.2204Z" fill="white"/>
<path d="M57.3517 40.9611H37.9506C37.7977 40.9611 37.6462 40.9876 37.505 41.0391C37.3637 41.0906 37.2353 41.1661 37.1272 41.2613C37.0191 41.3565 36.9333 41.4694 36.8748 41.5938C36.8162 41.7182 36.7861 41.8515 36.7861 41.9861C36.7861 42.1207 36.8162 42.254 36.8748 42.3783C36.9333 42.5027 37.0191 42.6157 37.1272 42.7108C37.2353 42.806 37.3637 42.8815 37.505 42.933C37.6462 42.9846 37.7977 43.0111 37.9506 43.0111H57.3517C57.6605 43.0111 57.9567 42.9031 58.1751 42.7108C58.3935 42.5186 58.5161 42.2579 58.5161 41.9861C58.5161 41.7142 58.3935 41.4535 58.1751 41.2613C57.9567 41.069 57.6605 40.9611 57.3517 40.9611Z" fill="#3E82DE"/>
<path d="M42.1877 34.401H37.9446C37.6373 34.401 37.3427 34.5306 37.1254 34.7613C36.9082 34.9919 36.7861 35.3048 36.7861 35.631C36.7861 35.9572 36.9082 36.2701 37.1254 36.5007C37.3427 36.7314 37.6373 36.861 37.9446 36.861H42.1877C42.4949 36.861 42.7896 36.7314 43.0068 36.5007C43.2241 36.2701 43.3461 35.9572 43.3461 35.631C43.3461 35.3048 43.2241 34.9919 43.0068 34.7613C42.7896 34.5306 42.4949 34.401 42.1877 34.401Z" fill="#3E82DE"/>
<path d="M57.3517 51.2111H37.9506C37.6418 51.2111 37.3456 51.3191 37.1272 51.5113C36.9088 51.7035 36.7861 51.9642 36.7861 52.2361C36.7861 52.5079 36.9088 52.7686 37.1272 52.9608C37.3456 53.1531 37.6418 53.2611 37.9506 53.2611H57.3517C57.6605 53.2611 57.9567 53.1531 58.1751 52.9608C58.3935 52.7686 58.5161 52.5079 58.5161 52.2361C58.5161 51.9642 58.3935 51.7035 58.1751 51.5113C57.9567 51.3191 57.6605 51.2111 57.3517 51.2111Z" fill="#3E82DE"/>
<path d="M57.3534 45.8811H37.9488C37.6405 45.8811 37.3447 46.0107 37.1267 46.2414C36.9086 46.472 36.7861 46.7849 36.7861 47.1111C36.7861 47.4373 36.9086 47.7502 37.1267 47.9808C37.3447 48.2115 37.6405 48.3411 37.9488 48.3411H57.3534C57.6618 48.3411 57.9575 48.2115 58.1756 47.9808C58.3936 47.7502 58.5161 47.4373 58.5161 47.1111C58.5161 46.7849 58.3936 46.472 58.1756 46.2414C57.9575 46.0107 57.6618 45.8811 57.3534 45.8811Z" fill="#3E82DE"/>
<path d="M53.5965 38.5011C52.2179 38.5011 50.8704 38.1043 49.7241 37.361C48.5779 36.6176 47.6846 35.5611 47.157 34.3249C46.6295 33.0888 46.4915 31.7286 46.7604 30.4163C47.0293 29.104 47.6932 27.8986 48.6679 26.9525C49.6427 26.0064 50.8846 25.3621 52.2367 25.1011C53.5887 24.84 54.9902 24.974 56.2638 25.486C57.5374 25.9981 58.6259 26.8651 59.3918 27.9776C60.1577 29.0901 60.5665 30.3981 60.5665 31.7361C60.5644 33.5296 59.8294 35.2492 58.5227 36.5174C57.216 37.7856 55.4444 38.499 53.5965 38.5011ZM53.5965 25.4412C52.3137 25.4412 51.0598 25.8104 49.9932 26.5021C48.9267 27.1937 48.0954 28.1769 47.6045 29.3271C47.1136 30.4773 46.9852 31.743 47.2354 32.9641C47.4857 34.1852 48.1034 35.3069 49.0104 36.1872C49.9174 37.0676 51.0731 37.6671 52.3311 37.91C53.5892 38.1529 54.8933 38.0282 56.0784 37.5518C57.2635 37.0753 58.2764 36.2685 58.989 35.2333C59.7017 34.1981 60.0821 32.9811 60.0821 31.7361C60.0801 30.0672 59.3962 28.4671 58.1803 27.287C56.9645 26.1069 55.316 25.4431 53.5965 25.4412Z" fill="#3E82DE"/>
<path d="M56.4592 34.5679C55.996 32.0646 55.0315 29.6925 53.629 27.6079C53.5974 27.5539 53.5531 27.5092 53.5002 27.4783C53.4474 27.4473 53.3879 27.431 53.3273 27.431C53.2668 27.431 53.2072 27.4473 53.1544 27.4783C53.1016 27.5092 53.0572 27.5539 53.0256 27.6079C51.8042 29.8446 51.0234 32.3149 50.7296 34.8728C50.6753 35.3392 51.3746 35.3351 51.4285 34.8728C51.5267 34.0438 51.6798 33.223 51.8866 32.4163C51.9134 32.4107 51.9396 32.4024 51.9647 32.3913C52.8941 31.9028 53.9439 31.7238 54.9733 31.8783C54.9823 31.8797 54.9909 31.8777 54.9999 31.8786C55.3398 32.8146 55.6025 33.7794 55.7852 34.7624C55.8705 35.2243 56.5442 35.0287 56.4592 34.5679ZM52.1382 31.5189C52.459 30.477 52.8674 29.4669 53.3586 28.5005C53.8785 29.3321 54.33 30.2085 54.7081 31.1202C53.8338 31.0514 52.9558 31.1876 52.1382 31.5189Z" fill="#3E82DE"/>
</svg>
